#N canvas 139 91 592 600 10;
#X obj 85 306 *~;
#X obj 86 422 dac~;
#X obj 142 124 vsl 8 64 0.03 100 1 0 empty empty empty 0 -9 0 10 -262144
-1 -1 5539 1;
#X obj 167 290 *~;
#X floatatom 142 240 5 0 0 0 - - -;
#X obj 142 263 osc~;
#X obj 215 33 vsl 8 64 0 100 0 0 empty empty empty 0 -9 0 10 -262144
-1 -1 1131 1;
#X floatatom 215 108 5 0 0 0 - - -;
#X obj 215 132 phasor~;
#X obj 215 -16 loadbang;
#X obj 413 320 vline~;
#X obj 85 336 *~;
#X obj 216 158 expr~ if($v1 < 0.5 \, $v1 \, 1-$v1);
#X obj 216 188 -~ 0.25;
#X obj 216 217 *~ 4;
#X msg 215 8 17.95;
#X obj 86 399 /~ 4;
#N canvas 616 38 450 300 trigger 0;
#N canvas 34 399 450 300 timer 0;
#X obj 116 57 inlet trigger;
#X obj 116 114 f 0;
#X obj 146 114 + 1;
#X floatatom 116 138 5 0 0 0 - - -;
#X obj 116 161 mod 200;
#X floatatom 116 183 5 0 0 0 - - -;
#X text 167 161 counts from 0 to 199 and then loops;
#X obj 116 209 outlet;
#X obj 116 85 metro 5;
#X connect 0 0 8 0;
#X connect 1 0 2 0;
#X connect 1 0 3 0;
#X connect 2 0 1 1;
#X connect 3 0 4 0;
#X connect 4 0 5 0;
#X connect 5 0 7 0;
#X connect 8 0 1 0;
#X restore 142 67 pd timer;
#X obj 142 47 tgl 15 0 empty empty empty 17 7 0 10 -262144 -1 -1 1
1;
#X obj 142 25 loadbang;
#N canvas 282 654 450 300 select 0;
#X obj 29 37 inlet;
#X obj 29 71 sel 11 19 29 41 53 59 79 89 101 113 151 193;
#X obj 145 143 bng 15 250 50 0 empty empty empty 17 7 0 10 -262144
-1 -1;
#X text 72 36 inlet reads a number;
#X obj 145 217 outlet;
#X obj 145 166 random 100;
#X obj 145 191 moses 70;
#X connect 0 0 1 0;
#X connect 1 0 2 0;
#X connect 1 1 2 0;
#X connect 1 2 2 0;
#X connect 1 3 2 0;
#X connect 1 4 2 0;
#X connect 1 5 2 0;
#X connect 1 6 2 0;
#X connect 1 7 2 0;
#X connect 1 8 2 0;
#X connect 1 9 2 0;
#X connect 1 10 2 0;
#X connect 1 11 2 0;
#X connect 2 0 5 0;
#X connect 5 0 6 0;
#X connect 6 0 4 0;
#X restore 142 95 pd select;
#X obj 142 124 outlet;
#X connect 0 0 3 0;
#X connect 1 0 0 0;
#X connect 2 0 1 0;
#X connect 3 0 4 0;
#X restore 413 -74 pd trigger;
#X obj 215 239 *~ 1;
#X msg 142 1 37.53;
#X obj 413 -44 pack f f;
#X obj 487 -111 vsl 8 64 89 250 0 0 empty empty empty 0 -9 0 10 -262144
-1 -1 470 1;
#X msg 413 16 1 10 \, 0 \$2 100;
#N canvas 858 38 450 300 random 0;
#X obj 87 42 tgl 15 0 empty empty empty 17 7 0 10 -262144 -1 -1 1 1
;
#X obj 87 18 loadbang;
#X obj 87 96 random 150;
#X obj 87 121 + 90;
#X floatatom 87 144 5 0 0 0 - - -;
#X obj 87 211 line;
#X msg 135 168 300;
#X obj 87 248 outlet;
#X obj 87 65 metro 1500;
#X connect 0 0 8 0;
#X connect 1 0 0 0;
#X connect 2 0 3 0;
#X connect 3 0 4 0;
#X connect 4 0 6 0;
#X connect 4 0 5 0;
#X connect 5 0 7 0;
#X connect 6 0 5 1;
#X connect 8 0 2 0;
#X restore 414 -130 pd random;
#X obj 85 369 *~;
#N canvas 924 198 354 426 random2 0;
#N canvas 34 399 450 300 timer 0;
#X obj 116 57 inlet trigger;
#X obj 116 114 f 0;
#X obj 146 114 + 1;
#X floatatom 116 138 5 0 0 0 - - -;
#X obj 116 161 mod 200;
#X floatatom 116 183 5 0 0 0 - - -;
#X text 167 161 counts from 0 to 199 and then loops;
#X obj 116 209 outlet;
#X obj 116 85 metro 100;
#X connect 0 0 8 0;
#X connect 1 0 2 0;
#X connect 1 0 3 0;
#X connect 2 0 1 1;
#X connect 3 0 4 0;
#X connect 4 0 5 0;
#X connect 5 0 7 0;
#X connect 8 0 1 0;
#X restore 74 64 pd timer;
#X obj 74 44 tgl 15 0 empty empty empty 17 7 0 10 -262144 -1 -1 1 1
;
#X obj 74 22 loadbang;
#N canvas 813 648 450 300 select 0;
#X obj 29 37 inlet;
#X obj 29 71 sel 11 19 29 41 53 59 79 89 101 113 151 193;
#X obj 145 143 bng 15 250 50 0 empty empty empty 17 7 0 10 -262144
-1 -1;
#X text 72 36 inlet reads a number;
#X obj 138 217 outlet;
#X obj 145 166 random 100;
#X obj 195 217 outlet;
#X obj 145 191 moses 65;
#X connect 0 0 1 0;
#X connect 1 0 2 0;
#X connect 1 1 2 0;
#X connect 1 2 2 0;
#X connect 1 3 2 0;
#X connect 1 4 2 0;
#X connect 1 5 2 0;
#X connect 1 6 2 0;
#X connect 1 7 2 0;
#X connect 1 8 2 0;
#X connect 1 9 2 0;
#X connect 1 10 2 0;
#X connect 1 11 2 0;
#X connect 2 0 5 0;
#X connect 5 0 7 0;
#X connect 7 0 4 0;
#X connect 7 1 6 0;
#X restore 74 92 pd select;
#X msg 61 147 1;
#X msg 134 146 0;
#X obj 89 206 line;
#X obj 74 118 bng 15 250 50 0 empty empty empty 17 7 0 10 -262144 -1
-1;
#X obj 125 118 bng 15 250 50 0 empty empty empty 17 7 0 10 -262144
-1 -1;
#X obj 89 230 vsl 8 64 0 1 0 0 empty empty empty 0 -9 0 10 -262144
-1 -1 0 1;
#X obj 89 307 sig~;
#X obj 89 336 outlet~;
#X msg 99 159 150;
#X connect 0 0 3 0;
#X connect 1 0 0 0;
#X connect 2 0 1 0;
#X connect 3 0 7 0;
#X connect 3 1 8 0;
#X connect 4 0 6 0;
#X connect 5 0 6 0;
#X connect 6 0 9 0;
#X connect 7 0 4 0;
#X connect 7 0 12 0;
#X connect 8 0 5 0;
#X connect 8 0 12 0;
#X connect 9 0 10 0;
#X connect 10 0 11 0;
#X connect 12 0 6 1;
#X restore 126 353 pd random2;
#X obj 84 215 osc~ 2093;
#X connect 0 0 11 0;
#X connect 2 0 4 0;
#X connect 3 0 0 1;
#X connect 4 0 5 0;
#X connect 5 0 3 0;
#X connect 6 0 7 0;
#X connect 7 0 8 0;
#X connect 8 0 12 0;
#X connect 9 0 15 0;
#X connect 9 0 19 0;
#X connect 10 0 11 1;
#X connect 11 0 24 0;
#X connect 12 0 13 0;
#X connect 13 0 14 0;
#X connect 14 0 18 0;
#X connect 15 0 6 0;
#X connect 16 0 1 0;
#X connect 16 0 1 1;
#X connect 17 0 20 0;
#X connect 18 0 3 1;
#X connect 19 0 2 0;
#X connect 20 0 22 0;
#X connect 21 0 20 1;
#X connect 22 0 10 0;
#X connect 23 0 21 0;
#X connect 24 0 16 0;
#X connect 25 0 24 1;
#X connect 26 0 0 0;
