#N canvas 988 182 527 303 10;
#X obj 97 276 dac~;
#X msg 113 50 0.3;
#X msg 148 76 0;
#X obj 98 222 *~;
#X obj 113 171 sig~;
#X obj 113 95 vsl 8 64 0 1 0 0 empty empty empty 0 -9 0 10 -262144
-1 -1 1890 1;
#N canvas 821 555 384 406 am 0;
#X obj 52 69 vsl 8 64 0 50 0 0 empty empty empty 0 -9 0 10 -262144
-1 -1 52 1;
#X obj 204 99 vsl 8 64 1 100 0 0 empty empty empty 0 -9 0 10 -262144
-1 -1 872 1;
#X obj 74 323 *~;
#X floatatom 73 136 5 0 0 0 - - -;
#X obj 53 189 expr~ 1000 * ($v1 + 1);
#X obj 126 241 expr~ ($v1 + 1);
#X floatatom 204 171 5 0 0 0 - - -;
#X obj 52 222 osc~ 1;
#X obj 74 374 outlet~;
#X obj 20 8 receive SynthAMRate;
#X obj 71 82 receive SynthAMDepth;
#X obj 153 8 loadbang;
#X obj 52 159 osc~ 2;
#X msg 53 46 0.412;
#X msg 204 74 14.71;
#X obj 125 280 *~;
#X obj 273 192 vsl 8 64 0 1 0 0 empty empty empty 0 -9 0 10 -262144
-1 -1 0 1;
#X obj 75 347 +~;
#X obj 254 274 * -1;
#X obj 254 298 + 1;
#X obj 254 162 receive SynthAMMix;
#X obj 278 95 loadbang;
#X msg 277 118 0;
#X obj 125 211 osc~ 65;
#X connect 0 0 3 0;
#X connect 0 0 12 0;
#X connect 1 0 6 0;
#X connect 2 0 17 0;
#X connect 4 0 7 0;
#X connect 5 0 15 0;
#X connect 6 0 23 0;
#X connect 7 0 2 0;
#X connect 9 0 12 0;
#X connect 10 0 23 0;
#X connect 11 0 14 0;
#X connect 11 0 13 0;
#X connect 12 0 4 0;
#X connect 13 0 0 0;
#X connect 14 0 1 0;
#X connect 15 0 2 1;
#X connect 16 0 18 0;
#X connect 16 0 15 1;
#X connect 17 0 8 0;
#X connect 18 0 19 0;
#X connect 19 0 17 1;
#X connect 20 0 15 1;
#X connect 20 0 18 0;
#X connect 21 0 22 0;
#X connect 22 0 15 1;
#X connect 22 0 18 0;
#X connect 23 0 5 0;
#X restore 48 124 pd am;
#N canvas 478 7 693 576 osc 0;
#X obj 216 526 outlet~;
#X obj 109 306 +~;
#X obj 198 290 inlet~;
#X obj 65 240 receive SynthPitch;
#X obj 47 187 vsl 8 64 16 7000 0 0 empty empty empty 0 -9 0 10 -262144
-1 -1 3100 1;
#X obj 304 306 +~;
#X obj 248 187 vsl 8 64 16 3520 0 0 empty empty empty 0 -9 0 10 -262144
-1 -1 3200 1;
#X obj 217 432 +~;
#X obj 216 503 *~ 0.5;
#X obj 304 243 receive SynthPitch2;
#X obj 304 329 phasor~ 440;
#X obj 304 394 lop~;
#X obj 446 363 noise~;
#X obj 32 74 loadbang;
#X obj 32 96 tgl 15 0 empty empty empty 17 7 0 10 -262144 -1 -1 1 1
;
#X obj 32 165 +;
#X obj 32 142 random 3000;
#X obj 114 75 vsl 8 64 0 5000 0 0 empty empty empty 0 -9 0 10 -262144
-1 -1 0 1;
#X obj 233 117 metro 100;
#X obj 233 73 loadbang;
#X obj 233 95 tgl 15 0 empty empty empty 17 7 0 10 -262144 -1 -1 1
1;
#X obj 233 164 +;
#X obj 233 141 random 3000;
#X obj 313 74 vsl 8 64 0 5000 0 0 empty empty empty 0 -9 0 10 -262144
-1 -1 0 1;
#X obj 313 147 / 10;
#X obj 114 148 / 10;
#X obj 32 118 metro 100;
#X obj 32 257 +;
#X obj 233 260 +;
#X obj 89 38 receive SynthPitchLFOA;
#X obj 293 42 receive SynthPitchLFOB;
#X obj 463 156 loadbang;
#X obj 463 178 tgl 15 0 empty empty empty 17 7 0 10 -262144 -1 -1 1
1;
#X obj 545 157 vsl 8 64 0 16000 0 0 empty empty empty 0 -9 0 10 -262144
-1 -1 0 1;
#X obj 216 459 +~;
#X obj 463 338 sig~;
#X obj 514 61 vsl 8 64 1 100 0 0 empty empty empty 0 -9 0 10 -262144
-1 -1 0 1;
#X obj 463 224 random 8000;
#X obj 446 388 vcf~ 5;
#X obj 463 200 metro 100;
#X obj 526 131 receive SynthNoiseLFO;
#X floatatom 569 224 5 0 0 0 - - -;
#X floatatom 266 239 5 0 0 0 - - -;
#X obj 255 -20 loadbang;
#X msg 255 3 0;
#X obj 325 277 + 100;
#X obj 303 416 *~ 3;
#X obj 480 412 *~ 2.2;
#X obj 216 481 hip~ 20;
#X obj 303 372 *~ 2;
#X obj 304 350 -~ 0.5;
#X obj 109 416 osc~ 440;
#X floatatom 77 201 5 0 0 0 - - -;
#X connect 1 0 51 0;
#X connect 2 0 1 1;
#X connect 2 0 5 1;
#X connect 3 0 27 1;
#X connect 4 0 27 1;
#X connect 4 0 52 0;
#X connect 5 0 10 0;
#X connect 6 0 28 1;
#X connect 6 0 42 0;
#X connect 7 0 34 0;
#X connect 8 0 0 0;
#X connect 9 0 28 1;
#X connect 10 0 50 0;
#X connect 11 0 46 0;
#X connect 12 0 38 0;
#X connect 13 0 14 0;
#X connect 14 0 26 0;
#X connect 15 0 27 0;
#X connect 16 0 15 0;
#X connect 17 0 16 1;
#X connect 17 0 25 0;
#X connect 18 0 22 0;
#X connect 19 0 20 0;
#X connect 20 0 18 0;
#X connect 21 0 28 0;
#X connect 22 0 21 0;
#X connect 23 0 22 1;
#X connect 23 0 24 0;
#X connect 24 0 21 1;
#X connect 25 0 15 1;
#X connect 26 0 16 0;
#X connect 27 0 1 0;
#X connect 28 0 5 0;
#X connect 28 0 45 0;
#X connect 29 0 16 1;
#X connect 29 0 25 0;
#X connect 30 0 22 1;
#X connect 30 0 24 0;
#X connect 31 0 32 0;
#X connect 32 0 39 0;
#X connect 33 0 37 1;
#X connect 33 0 41 0;
#X connect 34 0 48 0;
#X connect 35 0 38 1;
#X connect 36 0 39 1;
#X connect 37 0 35 0;
#X connect 38 1 47 0;
#X connect 39 0 37 0;
#X connect 40 0 37 1;
#X connect 43 0 44 0;
#X connect 44 0 17 0;
#X connect 44 0 23 0;
#X connect 44 0 33 0;
#X connect 45 0 11 1;
#X connect 46 0 7 1;
#X connect 47 0 34 1;
#X connect 48 0 8 0;
#X connect 49 0 11 0;
#X connect 50 0 49 0;
#X connect 51 0 7 0;
#X restore 35 99 pd osc;
#N canvas 606 401 468 582 fm 1;
#X obj 35 110 vsl 8 64 0 100 0 0 empty empty empty 0 -9 0 10 -262144
-1 -1 3200 1;
#X obj 35 325 osc~;
#X obj 34 397 *~;
#X obj 129 128 vsl 8 64 0 3000 0 0 empty empty empty 0 -9 0 10 -262144
-1 -1 3400 1;
#X obj 80 464 outlet~;
#X obj 49 26 receive SynthFMDepth;
#X obj 82 55 loadbang;
#X floatatom -3 177 5 0 0 0 - - -;
#X floatatom 154 195 5 0 0 0 - - -;
#X obj 7 -5 receive SynthFMRate;
#X msg 35 83 39.68;
#X msg 129 99 222.2;
#X obj 122 322 expr~ $v1 > $v2;
#X obj 209 223 loadbang;
#N canvas 0 0 450 300 (subpatch) 0;
#X array array1 1024 float 0;
#X coords 0 1000 1023 -1000 200 140 1 0 0;
#X restore 239 76 graph;
#X obj 142 533 tabwrite~ array1;
#X obj 142 509 metro 100;
#X obj 143 486 tgl 15 0 empty empty empty 17 7 0 10 -262144 -1 -1 1
1;
#X obj 122 345 -~ 0.5;
#X obj 123 369 *~ 2;
#X obj 121 275 phasor~;
#X obj 123 398 *~;
#X obj 33 432 *~;
#X obj 122 433 *~;
#X obj 293 407 * -1;
#X obj 278 340 vsl 8 64 0 1 0 0 empty empty Mix 0 -9 0 10 -262144 -1
-1 6300 1;
#X floatatom 293 453 5 0 0 0 - - -;
#X floatatom 246 407 5 0 0 0 - - -;
#X obj 293 430 + 1;
#X msg 278 303 1;
#X msg 209 246 0.25;
#X obj 161 367 receive SynthFMMix;
#X floatatom 225 280 5 0 0 0 - - -;
#X obj 225 305 / 100;
#X obj 296 255 receive SynthFMPWM;
#X connect 0 0 1 0;
#X connect 0 0 7 0;
#X connect 0 0 20 0;
#X connect 1 0 2 0;
#X connect 2 0 22 0;
#X connect 3 0 2 1;
#X connect 3 0 8 0;
#X connect 3 0 21 1;
#X connect 5 0 2 1;
#X connect 5 0 21 1;
#X connect 6 0 10 0;
#X connect 6 0 11 0;
#X connect 9 0 1 0;
#X connect 9 0 20 0;
#X connect 10 0 0 0;
#X connect 11 0 3 0;
#X connect 12 0 18 0;
#X connect 13 0 30 0;
#X connect 13 0 29 0;
#X connect 16 0 15 0;
#X connect 17 0 16 0;
#X connect 18 0 19 0;
#X connect 19 0 21 0;
#X connect 20 0 12 0;
#X connect 21 0 23 0;
#X connect 22 0 4 0;
#X connect 22 0 15 0;
#X connect 23 0 4 0;
#X connect 23 0 15 0;
#X connect 24 0 28 0;
#X connect 25 0 27 0;
#X connect 25 0 24 0;
#X connect 26 0 23 1;
#X connect 27 0 22 1;
#X connect 28 0 26 0;
#X connect 29 0 25 0;
#X connect 30 0 12 1;
#X connect 31 0 22 1;
#X connect 31 0 24 0;
#X connect 32 0 33 0;
#X connect 33 0 12 1;
#X connect 34 0 12 1;
#X restore 35 78 pd fm;
#N canvas 1245 386 566 578 filter 0;
#X obj 114 -46 vsl 8 64 40 16000 0 0 empty empty empty 0 -9 0 10 -262144
-1 -1 4721 1;
#X floatatom 114 28 8 0 0 0 - - -;
#X obj 178 15 vsl 8 64 1 50 0 0 empty empty empty 0 -9 0 10 -262144
-1 -1 0 1;
#X obj 199 430 outlet~;
#X obj 135 -102 loadbang;
#X floatatom 350 -7 5 0 0 0 - - -;
#X obj 19 36 inlet~;
#X obj 105 158 clip~ -1 1;
#X obj 105 108 *~;
#X obj 307 41 vsl 8 64 1 20 0 0 empty empty empty 0 -9 0 10 -262144
-1 -1 0 1;
#X obj 307 -74 vsl 8 64 1 8 0 0 empty empty empty 0 -9 0 10 -262144
-1 -1 0 1;
#X obj 105 134 *~ 0.3;
#X obj 307 0 / 3;
#X msg 114 -70 12000;
#X text 148 355 Serial;
#X text 296 354 Parallel;
#X obj 496 314 * -1;
#X obj 481 247 vsl 8 64 0 1 0 0 empty empty Mix 0 -9 0 10 -262144 -1
-1 6300 1;
#X floatatom 496 360 5 0 0 0 - - -;
#X floatatom 449 314 5 0 0 0 - - -;
#X obj 258 354 *~;
#X obj 198 353 *~;
#X obj 496 337 + 1;
#X obj 257 375 *~ 0.7;
#X obj 361 49 receive SynthHPCut;
#X obj 304 243 receive SynthFilterOrder;
#X msg 481 210 1;
#X obj 481 50 loadbang;
#X obj 259 323 +~;
#X obj 351 108 vsl 8 64 0 10000 0 0 empty empty empty 0 -9 0 10 -262144
-1 -1 0 1;
#X obj 241 148 hip~;
#X obj 240 174 hip~;
#X obj 239 200 hip~;
#X msg 205 -65 1;
#X obj 114 54 sig~;
#X obj 105 82 vcf~;
#X obj 105 181 lop~ 16000;
#X obj 17 -102 receive SynthLPCut;
#X obj 194 -100 receive SynthLPRes;
#X obj 197 397 hip~ 20;
#X msg 368 89 0;
#X connect 0 0 1 0;
#X connect 1 0 34 0;
#X connect 2 0 35 2;
#X connect 4 0 13 0;
#X connect 4 0 33 0;
#X connect 6 0 35 0;
#X connect 7 0 36 0;
#X connect 8 0 11 0;
#X connect 9 0 8 1;
#X connect 10 0 2 0;
#X connect 10 0 5 0;
#X connect 10 0 12 0;
#X connect 11 0 7 0;
#X connect 12 0 9 0;
#X connect 13 0 0 0;
#X connect 16 0 22 0;
#X connect 17 0 19 0;
#X connect 17 0 16 0;
#X connect 19 0 21 1;
#X connect 20 0 23 0;
#X connect 21 0 39 0;
#X connect 22 0 18 0;
#X connect 22 0 20 1;
#X connect 23 0 39 0;
#X connect 24 0 30 1;
#X connect 24 0 31 1;
#X connect 24 0 32 1;
#X connect 25 0 21 1;
#X connect 25 0 16 0;
#X connect 26 0 17 0;
#X connect 27 0 26 0;
#X connect 27 0 40 0;
#X connect 28 0 20 0;
#X connect 29 0 30 1;
#X connect 29 0 31 1;
#X connect 29 0 32 1;
#X connect 30 0 31 0;
#X connect 31 0 32 0;
#X connect 32 0 21 0;
#X connect 32 0 28 1;
#X connect 33 0 10 0;
#X connect 34 0 35 1;
#X connect 35 0 8 0;
#X connect 36 0 30 0;
#X connect 36 0 28 0;
#X connect 37 0 34 0;
#X connect 38 0 12 0;
#X connect 38 0 35 2;
#X connect 39 0 3 0;
#X connect 40 0 29 0;
#X restore 35 175 pd filter;
#X obj 35 197 lop~ 16000;
#X obj 114 27 receive SynthOn;
#X obj 148 53 receive SynthOff;
#X obj 174 179 loadbang;
#X msg 174 205 0;
#X obj 34 146 *~;
#X obj 97 249 *~ 0.8;
#X obj 112 195 lop~ 0.5;
#N canvas 0 0 450 300 (subpatch) 0;
#X array Preview 1024 float 0;
#X coords 0 1 1023 -1 200 140 1 0 0;
#X restore 309 54 graph;
#X obj 251 242 metro 100;
#X obj 252 219 tgl 15 0 empty empty empty 17 7 0 10 -262144 -1 -1 1
1;
#X obj 251 266 tabwrite~ Preview;
#X connect 1 0 5 0;
#X connect 2 0 5 0;
#X connect 3 0 16 0;
#X connect 3 0 21 0;
#X connect 4 0 17 0;
#X connect 5 0 4 0;
#X connect 6 0 15 1;
#X connect 7 0 15 0;
#X connect 8 0 7 0;
#X connect 9 0 10 0;
#X connect 10 0 3 0;
#X connect 11 0 1 0;
#X connect 12 0 2 0;
#X connect 13 0 14 0;
#X connect 14 0 3 1;
#X connect 15 0 9 0;
#X connect 16 0 0 0;
#X connect 16 0 0 1;
#X connect 17 0 3 1;
#X connect 19 0 21 0;
#X connect 20 0 19 0;
