#N canvas 678 49 526 833 10;
#X obj 92 297 phasor~;
#X obj 108 626 dac~;
#X obj 93 323 expr~ 2 * $v1 - 1;
#X obj 19 321 tgl 15 0 empty empty empty 17 7 0 10 -262144 -1 -1 1
1;
#X obj 19 369 random 5;
#X obj 262 203 / 127;
#X obj 386 137 vsl 8 64 1 300 0 0 empty empty Att 0 -9 0 10 -260097
-1 -1 611 1;
#X obj 242 317 vline~;
#X obj 417 137 vsl 8 64 1 5000 0 0 empty empty Dec 0 -9 0 10 -260097
-1 -1 3779 1;
#X obj 450 138 vsl 8 64 0 1 0 0 empty empty Sus 0 -9 0 10 -260097 -1
-1 0 1;
#X floatatom 435 245 5 0 0 0 - - -;
#X obj 435 220 *;
#X msg 242 288 \$2 \$3 \, \$5 \$4 \$3;
#X obj 242 261 pack f f f f f;
#X obj 417 74 loadbang;
#X obj 157 482 *~;
#X obj 157 508 *~;
#X obj 106 482 *~ 0.5;
#X msg 450 104 0;
#X msg 417 104 3000;
#X obj 181 165 bng 15 250 50 0 empty empty empty 17 7 0 10 -262144
-1 -1;
#X msg 386 104 30;
#X obj 209 -30 metro 3000;
#X obj 19 297 loadbang;
#X obj 107 443 *~;
#X msg 262 180 127;
#X obj 102 -30 receive trigger;
#X obj 19 345 metro 100;
#X obj 108 603 hip~ 300;
#N canvas 646 77 655 583 vowels 0;
#X obj -12 40 hradio 15 1 0 5 empty empty empty 0 -8 0 10 -262144 -1
-1 0;
#X obj 43 120 unpack f f f f f f f f f f f f f f f;
#X obj -130 284 /;
#X obj -167 514 *~;
#X obj -122 421 + 100;
#X obj -123 454 dbtorms;
#X obj -173 454 vcf~;
#X obj -185 335 line~;
#X obj -1 285 /;
#X obj -38 515 *~;
#X obj 7 422 + 100;
#X obj 6 455 dbtorms;
#X obj -44 455 vcf~;
#X obj -56 336 line~;
#X obj 132 283 /;
#X obj 95 501 *~;
#X obj 140 424 + 100;
#X obj 139 457 dbtorms;
#X obj 89 457 vcf~;
#X obj 77 334 line~;
#X obj 261 284 /;
#X obj 224 502 *~;
#X obj 269 425 + 100;
#X obj 268 458 dbtorms;
#X obj 218 458 vcf~;
#X obj 206 335 line~;
#X obj 392 286 /;
#X obj 355 497 *~;
#X obj 400 420 + 100;
#X obj 399 453 dbtorms;
#X obj 349 453 vcf~;
#X obj 337 337 line~;
#X obj -130 335 line;
#X obj -1 336 line;
#X obj 132 334 line;
#X obj 261 335 line;
#X obj 392 337 line;
#N canvas 91 530 515 426 filterbank 0;
#X obj 28 50 select 0 1 2 3 4;
#X msg 28 86 800 80 0 1150 90 -4 2800 120 -20 3500 130 -36 4950 140
-60;
#X text 58 70 Freq \, Q \, Amp...;
#X msg 46 116 400 60 0 1600 80 -24 2700 120 -30 3300 150 -35 4950 200
-60;
#X msg 65 144 350 50 0 1700 100 -20 2700 120 -30 3700 150 -36 4950
200 -60;
#X text 413 116 E;
#X text 437 144 I;
#X text 385 86 A;
#X msg 83 169 450 70 0 800 80 -9 2830 100 -16 3500 130 -28 4950 135
-55;
#X text 437 168 O;
#X msg 102 195 325 50 0 700 60 -12 2530 170 -30 3500 180 -40 4950 200
-64;
#X text 463 194 U;
#X obj 28 23 inlet;
#X obj 28 277 outlet;
#X obj 46 300 outlet;
#X obj 65 323 outlet;
#X obj 83 346 outlet;
#X obj 102 370 outlet;
#X connect 0 0 1 0;
#X connect 0 1 3 0;
#X connect 0 2 4 0;
#X connect 0 3 8 0;
#X connect 0 4 10 0;
#X connect 1 0 13 0;
#X connect 3 0 14 0;
#X connect 4 0 15 0;
#X connect 8 0 16 0;
#X connect 10 0 17 0;
#X connect 12 0 0 0;
#X restore -12 61 pd filterbank;
#X obj -122 395 line;
#X obj 7 399 line;
#X obj 141 399 line;
#X obj 269 403 line;
#X obj 399 399 line;
#X msg -122 370 \$1 1;
#X msg 7 374 \$1 1;
#X msg 141 374 \$1 1;
#X msg 269 378 \$1 1;
#X msg 399 374 \$1 1;
#X msg -185 308 \$1 50;
#X msg -56 309 \$1 50;
#X msg 77 307 \$1 50;
#X msg 206 308 \$1 50;
#X msg 337 310 \$1 50;
#X msg 132 307 \$1 50;
#X msg 261 309 \$1 50;
#X msg 392 310 \$1 50;
#X msg -130 308 \$1 50;
#X msg -1 310 \$1 50;
#X obj -20 9 inlet;
#X obj 149 73 inlet~;
#X obj 206 75 inlet~;
#X obj 261 76 inlet~;
#X obj 326 75 inlet~;
#X obj 381 76 inlet~;
#X obj -167 541 outlet~;
#X obj -38 540 outlet~;
#X obj 95 538 outlet~;
#X obj 223 539 outlet~;
#X obj 354 536 outlet~;
#X connect 0 0 37 0;
#X connect 1 0 2 0;
#X connect 1 0 48 0;
#X connect 1 1 2 1;
#X connect 1 2 43 0;
#X connect 1 3 49 0;
#X connect 1 3 8 0;
#X connect 1 4 8 1;
#X connect 1 5 44 0;
#X connect 1 6 50 0;
#X connect 1 6 14 0;
#X connect 1 7 14 1;
#X connect 1 8 45 0;
#X connect 1 9 51 0;
#X connect 1 9 20 0;
#X connect 1 10 20 1;
#X connect 1 11 46 0;
#X connect 1 12 52 0;
#X connect 1 12 26 0;
#X connect 1 13 26 1;
#X connect 1 14 47 0;
#X connect 2 0 56 0;
#X connect 3 0 64 0;
#X connect 4 0 5 0;
#X connect 5 0 3 1;
#X connect 6 1 3 0;
#X connect 7 0 6 1;
#X connect 8 0 57 0;
#X connect 9 0 65 0;
#X connect 10 0 11 0;
#X connect 11 0 9 1;
#X connect 12 1 9 0;
#X connect 13 0 12 1;
#X connect 14 0 53 0;
#X connect 15 0 66 0;
#X connect 16 0 17 0;
#X connect 17 0 15 1;
#X connect 18 1 15 0;
#X connect 19 0 18 1;
#X connect 20 0 54 0;
#X connect 21 0 67 0;
#X connect 22 0 23 0;
#X connect 23 0 21 1;
#X connect 24 1 21 0;
#X connect 25 0 24 1;
#X connect 26 0 55 0;
#X connect 27 0 68 0;
#X connect 28 0 29 0;
#X connect 29 0 27 1;
#X connect 30 1 27 0;
#X connect 31 0 30 1;
#X connect 32 0 6 2;
#X connect 33 0 12 2;
#X connect 34 0 18 2;
#X connect 35 0 24 2;
#X connect 36 0 30 2;
#X connect 37 0 1 0;
#X connect 37 1 1 0;
#X connect 37 2 1 0;
#X connect 37 3 1 0;
#X connect 37 4 1 0;
#X connect 38 0 4 0;
#X connect 43 0 38 0;
#X connect 44 0 39 0;
#X connect 45 0 40 0;
#X connect 46 0 41 0;
#X connect 47 0 42 0;
#X connect 48 0 7 0;
#X connect 49 0 13 0;
#X connect 50 0 19 0;
#X connect 51 0 25 0;
#X connect 52 0 31 0;
#X connect 53 0 34 0;
#X connect 54 0 35 0;
#X connect 55 0 36 0;
#X connect 56 0 32 0;
#X connect 57 0 33 0;
#X connect 58 0 0 0;
#X connect 59 0 6 0;
#X connect 60 0 12 0;
#X connect 61 0 18 0;
#X connect 62 0 24 0;
#X connect 63 0 30 0;
#X restore 82 386 pd vowels;
#X obj 240 95 line;
#X msg 240 73 \$1 10;
#X floatatom 386 239 5 0 0 0 - - -;
#X obj 240 25 random 100;
#X obj 240 49 + 50;
#X obj 328 95 line;
#X msg 328 73 \$1 10;
#X obj 328 25 random 2000;
#N canvas 1088 169 380 412 AM 0;
#X obj 157 156 vsl 8 64 1 100 0 0 empty empty Rate 0 -9 0 10 -260097
-1 -1 955 1;
#X obj 194 264 vsl 8 64 0 4 0 0 empty empty Depth 0 -9 0 10 -260097
-1 -1 3937 1;
#X obj 141 331 *~;
#X obj 142 307 osc~;
#X obj 35 269 vsl 8 64 0 1 0 0 empty empty WET 0 -9 0 10 -262144 -1
-1 1499 1;
#X floatatom 54 342 5 0 0 0 - - -;
#X obj 72 222 osc~;
#X obj 72 118 vsl 8 64 0.1 10 0 0 empty empty Rate 0 -9 0 10 -260097
-1 -1 700 1;
#X obj 71 262 *~ 0.5;
#X obj 142 278 *~;
#X floatatom 88 185 5 0 0 0 - - -;
#X floatatom 118 223 5 0 0 0 - - -;
#X floatatom 211 331 5 0 0 0 - - -;
#X obj 90 15 loadbang;
#X msg 157 86 16;
#X msg 194 86 2.5;
#X obj 35 367 outlet;
#X obj 142 369 outlet~;
#X msg 35 102 0.238;
#X msg 72 85 1.2;
#X connect 0 0 9 1;
#X connect 0 0 11 0;
#X connect 1 0 2 1;
#X connect 1 0 12 0;
#X connect 2 0 17 0;
#X connect 3 0 2 0;
#X connect 4 0 5 0;
#X connect 4 0 16 0;
#X connect 6 0 8 0;
#X connect 7 0 6 0;
#X connect 7 0 10 0;
#X connect 8 0 9 0;
#X connect 9 0 3 0;
#X connect 13 0 19 0;
#X connect 13 0 14 0;
#X connect 13 0 15 0;
#X connect 13 0 18 0;
#X connect 14 0 0 0;
#X connect 15 0 1 0;
#X connect 18 0 4 0;
#X connect 19 0 7 0;
#X restore 172 445 pd AM;
#X msg 238 -55 stop;
#X obj 209 -55 bng 15 250 50 0 empty empty empty 17 7 0 10 -262144
-1 -1;
#X obj 209 -119 receive alientalkon;
#X obj 238 -98 receive alientalkoff;
#X obj 238 -75 bng 15 250 50 0 empty empty empty 17 7 0 10 -262144
-1 -1;
#X obj 327 49 + 1000;
#X floatatom 417 278 5 0 0 0 - - -;
#X obj 107 582 *~ 1.2;
#N canvas 887 190 738 701 pitchshifter 0;
#X floatatom 32 67 0 0 0 0 - - -;
#X obj 155 465 *~;
#X obj 396 342 line~;
#X floatatom 396 87 0 0 0 0 - - -;
#X obj 396 292 pack 0 200;
#X obj 396 48 r window;
#X obj 32 17 r transpose;
#X obj 32 148 exp;
#X floatatom 32 181 6 0 0 0 - - -;
#X obj 32 279 /;
#X obj 280 176 * 0.001;
#X obj 586 479 line~;
#X obj 586 430 pack 0 200;
#X floatatom 586 331 0 0 0 0 - - -;
#X obj 586 279 r delay;
#X obj 155 506 +~;
#X obj 32 552 cos~;
#X obj 32 605 *~;
#X obj 32 639 +~;
#X obj 201 385 wrap~;
#X obj 485 469 *~;
#X obj 485 517 +~;
#X obj 362 565 cos~;
#X obj 362 607 *~;
#X msg 574 584 \; transpose 0 \; window 100 \; delay 0;
#X obj 574 533 loadbang;
#X obj 280 229 t b f;
#X floatatom 32 322 6 0 0 0 - - -;
#X obj 199 345 +~ 0.5;
#X obj 32 465 -~ 0.5;
#X obj 32 506 *~ 0.5;
#X obj 362 468 -~ 0.5;
#X obj 362 521 *~ 0.5;
#X obj 32 218 - 1;
#X obj 32 110 * 0.05776;
#X obj 32 240 * -1;
#X text 114 16 <-- transposition;
#X text 84 174 speed;
#X text 83 189 change;
#X text 428 86 <--window (msec);
#X obj 32 354 phasor~;
#X obj 586 383 max 1.5;
#X text 592 240 delay;
#X text 586 256 (msec);
#X obj 396 130 max 1;
#X text 281 20 Pitch Shifter (simplified);
#X text 149 573 delayline 1;
#X text 481 585 delayline 2;
#X text 194 323 out of phase;
#X obj 485 562 vd~ test;
#X obj 155 552 vd~ test;
#X obj 203 78 delwrite~ test 1000;
#X obj 202 46 inlet~;
#X obj 119 677 outlet~;
#X connect 0 0 34 0;
#X connect 1 0 15 0;
#X connect 2 0 1 1;
#X connect 2 0 20 1;
#X connect 3 0 44 0;
#X connect 4 0 2 0;
#X connect 5 0 3 0;
#X connect 6 0 0 0;
#X connect 7 0 8 0;
#X connect 8 0 33 0;
#X connect 9 0 27 0;
#X connect 10 0 26 0;
#X connect 11 0 15 1;
#X connect 11 0 21 1;
#X connect 12 0 11 0;
#X connect 13 0 41 0;
#X connect 14 0 13 0;
#X connect 15 0 50 0;
#X connect 16 0 17 0;
#X connect 17 0 18 0;
#X connect 18 0 53 0;
#X connect 19 0 20 0;
#X connect 19 0 31 0;
#X connect 20 0 21 0;
#X connect 21 0 49 0;
#X connect 22 0 23 0;
#X connect 23 0 18 1;
#X connect 25 0 24 0;
#X connect 26 0 9 0;
#X connect 26 1 9 1;
#X connect 27 0 40 0;
#X connect 28 0 19 0;
#X connect 29 0 30 0;
#X connect 30 0 16 0;
#X connect 31 0 32 0;
#X connect 32 0 22 0;
#X connect 33 0 35 0;
#X connect 34 0 7 0;
#X connect 35 0 9 0;
#X connect 40 0 1 0;
#X connect 40 0 29 0;
#X connect 40 0 28 0;
#X connect 41 0 12 0;
#X connect 44 0 10 0;
#X connect 44 0 4 0;
#X connect 49 0 23 1;
#X connect 50 0 17 1;
#X connect 52 0 51 0;
#X restore 107 558 pd pitchshifter;
#X obj 91 252 FM;
#X connect 0 0 2 0;
#X connect 2 0 29 1;
#X connect 2 0 29 2;
#X connect 2 0 29 3;
#X connect 2 0 29 4;
#X connect 2 0 29 5;
#X connect 3 0 27 0;
#X connect 4 0 29 0;
#X connect 5 0 11 0;
#X connect 5 0 13 1;
#X connect 6 0 13 2;
#X connect 6 0 32 0;
#X connect 7 0 24 1;
#X connect 8 0 13 3;
#X connect 8 0 45 0;
#X connect 9 0 11 1;
#X connect 10 0 13 4;
#X connect 11 0 10 0;
#X connect 12 0 7 0;
#X connect 12 0 7 0;
#X connect 13 0 12 0;
#X connect 14 0 21 0;
#X connect 14 0 19 0;
#X connect 14 0 18 0;
#X connect 15 0 16 0;
#X connect 16 0 47 0;
#X connect 17 0 47 0;
#X connect 18 0 9 0;
#X connect 19 0 8 0;
#X connect 20 0 13 0;
#X connect 20 0 5 0;
#X connect 20 0 33 0;
#X connect 20 0 25 0;
#X connect 20 0 37 0;
#X connect 20 0 48 0;
#X connect 21 0 6 0;
#X connect 22 0 33 0;
#X connect 22 0 37 0;
#X connect 22 0 20 0;
#X connect 23 0 3 0;
#X connect 24 0 15 0;
#X connect 24 0 17 0;
#X connect 25 0 5 0;
#X connect 26 0 20 0;
#X connect 27 0 4 0;
#X connect 28 0 1 0;
#X connect 28 0 1 1;
#X connect 29 0 24 0;
#X connect 29 1 24 0;
#X connect 29 2 24 0;
#X connect 29 3 24 0;
#X connect 29 4 24 0;
#X connect 30 0 6 0;
#X connect 31 0 30 0;
#X connect 33 0 34 0;
#X connect 34 0 31 0;
#X connect 35 0 8 0;
#X connect 36 0 35 0;
#X connect 37 0 44 0;
#X connect 38 0 16 1;
#X connect 38 1 15 1;
#X connect 39 0 22 0;
#X connect 40 0 22 0;
#X connect 41 0 40 0;
#X connect 42 0 43 0;
#X connect 43 0 39 0;
#X connect 44 0 36 0;
#X connect 46 0 28 0;
#X connect 47 0 46 0;
#X connect 48 0 0 0;
