#N canvas 0 0 432 572 10;
#X obj 74 404 *~;
#X obj 87 114 env~;
#X obj 87 90 lop~ 1;
#X msg 138 180 bang;
#X obj 87 137 moses 50;
#X obj 138 158 moses 51;
#X obj 138 203 random 30;
#X obj 138 247 line~;
#X msg 138 226 1 \, 0 \$1;
#X obj 138 275 *~;
#X obj 106 335 + 1500;
#X obj 74 359 bp~ 4000 1;
#X obj 105 313 * 500;
#X obj 74 429 outlet~;
#X obj 73 62 inlet~;
#X connect 0 0 13 0;
#X connect 1 0 4 0;
#X connect 2 0 1 0;
#X connect 3 0 6 0;
#X connect 4 1 5 0;
#X connect 5 0 3 0;
#X connect 6 0 8 0;
#X connect 6 0 12 0;
#X connect 7 0 9 0;
#X connect 7 0 9 1;
#X connect 8 0 7 0;
#X connect 9 0 0 1;
#X connect 10 0 11 1;
#X connect 11 0 0 0;
#X connect 12 0 10 0;
#X connect 14 0 2 0;
#X connect 14 0 11 0;
