#N canvas 613 297 782 283 10;
#X obj 381 -206 vsl 8 64 0 1 0 0 crackleslevel empty empty 0 -9 0 10
-262144 -1 -1 1394 1;
#X obj 426 -206 vsl 8 64 0 1 0 0 hisslevel empty empty 0 -9 0 10 -262144
-1 -1 4544 1;
#X obj 467 -206 vsl 8 64 0 1 0 0 lappinglevel empty empty 0 -9 0 10
-262144 -1 -1 5804 1;
#X text 363 -136 Crackles;
#X text 418 -136 Hiss;
#X text 452 -136 Lapping;
#N canvas 53 312 450 435 fire 0;
#X obj 69 88 Crackles;
#X obj 69 179 *~;
#X obj 160 169 *~;
#X obj 237 167 *~;
#X obj 160 209 outlet~;
#X obj 303 92 r crackleslevel;
#X obj 327 113 r hisslevel;
#X obj 309 136 r lappinglevel;
#X obj 169 31 noise~;
#X obj 161 87 Hiss;
#X obj 237 86 Lapping;
#X connect 0 0 1 0;
#X connect 1 0 4 0;
#X connect 2 0 4 0;
#X connect 3 0 4 0;
#X connect 5 0 1 1;
#X connect 6 0 2 1;
#X connect 7 0 3 1;
#X connect 8 0 0 0;
#X connect 8 0 9 0;
#X connect 8 0 10 0;
#X connect 9 0 2 0;
#X connect 10 0 3 0;
#X restore 28 -308 pd fire;
#X obj 29 -262 bp~ 600 0.2;
#X obj 170 -139 dac~;
#X floatatom 380 -114 5 0 0 0 - - -;
#X floatatom 422 -114 5 0 0 0 - - -;
#X floatatom 471 -115 5 0 0 0 - - -;
#X obj 103 -262 bp~ 1200 0.6;
#X obj 198 -263 bp~ 2600 0.4;
#X obj 292 -262 hip~ 1000;
#X obj 381 -311 receive crackles;
#X obj 426 -291 receive hiss;
#X obj 467 -272 receive lapping;
#X obj 381 -237 / 100;
#X obj 426 -237 / 100;
#X obj 467 -237 / 100;
#X obj 600 -228 r campfireproximity;
#X obj 600 -205 / 100;
#X obj 583 -272 vsl 8 64 0 100 0 0 empty empty empty 0 -9 0 10 -262144
-1 -1 1000 1;
#X obj 537 -120 clip 0 1;
#N canvas 53 312 450 435 fire 0;
#X obj 69 88 Crackles;
#X obj 69 179 *~;
#X obj 160 169 *~;
#X obj 237 167 *~;
#X obj 160 209 outlet~;
#X obj 303 92 r crackleslevel;
#X obj 327 113 r hisslevel;
#X obj 309 136 r lappinglevel;
#X obj 169 31 noise~;
#X obj 161 87 Hiss;
#X obj 237 86 Lapping;
#X connect 0 0 1 0;
#X connect 1 0 4 0;
#X connect 2 0 4 0;
#X connect 3 0 4 0;
#X connect 5 0 1 1;
#X connect 6 0 2 1;
#X connect 7 0 3 1;
#X connect 8 0 0 0;
#X connect 8 0 9 0;
#X connect 8 0 10 0;
#X connect 9 0 2 0;
#X connect 10 0 3 0;
#X restore 108 -308 pd fire;
#N canvas 53 312 450 435 fire 0;
#X obj 69 88 Crackles;
#X obj 69 179 *~;
#X obj 160 169 *~;
#X obj 237 167 *~;
#X obj 160 209 outlet~;
#X obj 303 92 r crackleslevel;
#X obj 327 113 r hisslevel;
#X obj 309 136 r lappinglevel;
#X obj 169 31 noise~;
#X obj 161 87 Hiss;
#X obj 237 86 Lapping;
#X connect 0 0 1 0;
#X connect 1 0 4 0;
#X connect 2 0 4 0;
#X connect 3 0 4 0;
#X connect 5 0 1 1;
#X connect 6 0 2 1;
#X connect 7 0 3 1;
#X connect 8 0 0 0;
#X connect 8 0 9 0;
#X connect 8 0 10 0;
#X connect 9 0 2 0;
#X connect 10 0 3 0;
#X restore 201 -308 pd fire;
#N canvas 53 312 450 435 fire 0;
#X obj 69 88 Crackles;
#X obj 69 179 *~;
#X obj 160 169 *~;
#X obj 237 167 *~;
#X obj 160 209 outlet~;
#X obj 303 92 r crackleslevel;
#X obj 327 113 r hisslevel;
#X obj 309 136 r lappinglevel;
#X obj 169 31 noise~;
#X obj 161 87 Hiss;
#X obj 237 86 Lapping;
#X connect 0 0 1 0;
#X connect 1 0 4 0;
#X connect 2 0 4 0;
#X connect 3 0 4 0;
#X connect 5 0 1 1;
#X connect 6 0 2 1;
#X connect 7 0 3 1;
#X connect 8 0 0 0;
#X connect 8 0 9 0;
#X connect 8 0 10 0;
#X connect 9 0 2 0;
#X connect 10 0 3 0;
#X restore 281 -308 pd fire;
#X obj 173 -205 *~ 0.8;
#X obj 663 -120 clip 0 1;
#X obj 600 -183 * -1;
#X obj 600 -161 + 1;
#X obj 538 -144 - 0.7;
#X obj 663 -144 - 0.2;
#X obj 169 -171 clip~ -1 1;
#X connect 0 0 9 0;
#X connect 1 0 10 0;
#X connect 2 0 11 0;
#X connect 6 0 7 0;
#X connect 7 0 28 0;
#X connect 12 0 28 0;
#X connect 13 0 28 0;
#X connect 14 0 28 0;
#X connect 15 0 18 0;
#X connect 16 0 19 0;
#X connect 17 0 20 0;
#X connect 18 0 0 0;
#X connect 19 0 1 0;
#X connect 20 0 2 0;
#X connect 21 0 22 0;
#X connect 22 0 30 0;
#X connect 23 0 22 0;
#X connect 24 0 0 0;
#X connect 25 0 12 0;
#X connect 26 0 13 0;
#X connect 27 0 14 0;
#X connect 28 0 34 0;
#X connect 29 0 1 0;
#X connect 30 0 31 0;
#X connect 31 0 2 0;
#X connect 31 0 32 0;
#X connect 31 0 33 0;
#X connect 32 0 24 0;
#X connect 33 0 29 0;
#X connect 34 0 8 0;
#X connect 34 0 8 1;
