#N canvas 0 0 450 300 10;
#X obj 116 198 *~;
#X obj 151 67 lop~ 1;
#X obj 152 117 *~;
#X obj 151 143 *~;
#X obj 152 90 *~ 10;
#X obj 115 232 outlet~;
#X obj 121 37 inlet~;
#X obj 76 68 hip~ 1200;
#X obj 151 167 *~ 400;
#X connect 0 0 5 0;
#X connect 1 0 4 0;
#X connect 2 0 3 0;
#X connect 2 0 3 1;
#X connect 3 0 8 0;
#X connect 4 0 2 0;
#X connect 4 0 2 1;
#X connect 6 0 1 0;
#X connect 6 0 7 0;
#X connect 7 0 0 0;
#X connect 8 0 0 1;
