#N canvas 674 61 450 300 10;
#X obj 31 139 hip~ 25;
#X obj 31 50 bp~ 30 5;
#X obj 31 75 *~ 100;
#X obj 31 163 *~ 0.6;
#X obj 30 187 outlet~;
#X obj 31 22 inlet~;
#X obj 31 96 hip~ 30;
#X obj 31 119 clip~ -0.8 0.8;
#X connect 0 0 3 0;
#X connect 1 0 2 0;
#X connect 2 0 6 0;
#X connect 3 0 4 0;
#X connect 5 0 1 0;
#X connect 6 0 7 0;
#X connect 7 0 0 0;
